<svg width="144" height="144" viewBox="0 0 144 144" fill="none" xmlns="http://www.w3.org/2000/svg">
<path fill-rule="evenodd" clip-rule="evenodd" d="M58.7872 0.558329C56.843 1.72576 55.4593 3.99906 55.1482 6.53543C55.0135 7.63518 50.4424 7.65048 48.6125 6.55761C47.4306 5.85172 42.6955 5.89608 40.8773 6.63026C40.0783 6.95262 39.1196 7.52926 38.7466 7.91088C38.374 8.29251 37.0464 9.06378 35.7963 9.62474C33.4805 10.6641 31.1627 10.9845 25.2898 11.0771C23.4128 11.1069 22.4149 11.2866 22.1576 11.6411C21.9501 11.9275 21.5906 12.1619 21.3586 12.1619C20.5406 12.1619 20.2375 15.3674 20.9613 16.3682C21.4368 17.0255 22.3625 17.7337 23.4492 18.2717C23.8629 18.4763 24.2011 18.8487 24.2011 19.0992C24.2011 19.3496 24.2886 19.4548 24.3955 19.3324C24.6632 19.0261 29.0638 21.0979 29.5477 21.7583C29.6396 21.8837 30.1322 22.1032 30.6421 22.2458C31.4829 22.4814 32.8894 23.7165 32.8894 24.219C32.8894 24.3302 33.4157 24.9505 34.0589 25.5967C34.7022 26.2429 35.2285 27.0123 35.2285 27.306C35.2285 27.5996 35.4578 27.8398 35.7381 27.8398C36.0182 27.8398 36.3837 28.2497 36.5502 28.7506C36.7169 29.2519 37.3074 30.032 37.8628 30.4848L38.8729 31.3077L39.6987 30.4859C40.1531 30.0339 40.4449 29.4255 40.3473 29.1342C40.2494 28.8428 40.3359 28.6046 40.5394 28.6046C40.9331 28.6046 41.0387 27.1412 40.7145 26.1745C40.6076 25.8552 40.3423 25.6716 40.1251 25.7672C39.9079 25.8625 39.3501 25.1202 38.885 24.1176C38.354 22.972 37.7816 22.2519 37.3441 22.1793C36.1615 21.982 35.167 20.4402 35.288 18.9909C35.3879 17.7979 35.4888 17.6977 36.7029 17.5841C38.4893 17.417 40.1368 18.4812 40.6053 20.1045C40.8739 21.0371 41.0791 21.2715 41.3778 20.9878C41.6014 20.7756 42.4355 20.5083 43.2315 20.3935C45.3163 20.0938 47.8674 19.0403 49.586 17.7688C51.0259 16.7043 51.1138 16.6867 52.0922 17.2767C53.3139 18.0132 55.6504 18.9191 56.1139 18.8361C58.3284 18.4392 59.8489 16.3945 60.0814 13.5002C60.1657 12.4487 60.2475 11.4591 60.2629 11.3015C60.2783 11.144 60.4791 11.0109 60.7087 11.0063C60.9386 11.0017 61.3519 10.4427 61.6276 9.76355C61.9033 9.08481 62.3765 8.4772 62.6789 8.41334C63.2868 8.28524 67.9768 13.3018 67.9768 14.0799C67.9768 14.3426 68.2398 14.8359 68.5616 15.1762C68.8834 15.5162 69.4264 16.4255 69.7686 17.1964C70.1108 17.9673 71.0093 19.3129 71.7652 20.1863C73.0043 21.6187 73.2549 21.7506 74.3172 21.5327C75.9413 21.1996 76.3306 20.4781 76.1324 18.1661C76.0065 16.6928 75.5944 15.5923 74.3948 13.5255C73.53 12.0353 72.5214 10.1643 72.1539 9.3674C71.0027 6.87232 66.8139 2.40832 65.2567 2.01676C64.733 1.88522 64.1914 1.57242 64.0523 1.32158C63.3008 -0.0355182 60.4614 -0.447351 58.7872 0.558329ZM82.6998 25.4502C82.3021 25.8189 81.9319 26.464 81.8771 26.8842C81.7628 27.7587 82.5742 29.3693 83.1292 29.3693C83.9609 29.3693 88.0899 31.4075 88.255 31.8996C88.3525 32.1902 88.6042 32.4338 88.8144 32.4403C89.888 32.4743 91.3016 36.4573 91.4048 39.7393C91.491 42.4879 90.406 48.4027 89.0984 52.3126C88.2329 54.9002 87.4286 58.1333 87.1302 60.2227C87.0125 61.0467 87.2037 62.0084 87.721 63.1934C88.688 65.4094 90.5764 66.7171 92.7171 66.6533C94.165 66.6105 94.2055 66.576 94.0912 65.4836C94.0264 64.8645 93.8609 64.2718 93.7233 64.1666C92.8444 63.4944 92.0618 58.1322 92.6907 57.0924C92.8177 56.8821 93.1993 55.5916 93.5385 54.2245C93.8773 52.8575 94.2796 51.5757 94.4324 51.3757C94.5851 51.1761 94.7101 50.627 94.7101 50.1555C94.7101 49.6841 94.8604 49.1923 95.0442 49.0623C95.228 48.9323 95.3784 48.2685 95.3784 47.5867C95.3784 46.9049 95.5147 46.1837 95.6811 45.9841C96.0527 45.539 96.715 40.7247 96.7147 38.4732C96.7147 36.0087 94.7545 30.7406 93.636 30.198C93.4917 30.1276 93.3734 29.8469 93.3734 29.5739C93.3734 29.0451 91.748 27.5457 90.3659 26.7997C89.347 26.2498 84.6777 24.7807 83.9489 24.7807C83.6595 24.7807 83.0971 25.082 82.6998 25.4502ZM33.4361 39.8873C32.9094 40.2016 32.3393 40.4586 32.1689 40.4586C31.9985 40.4586 31.536 40.8027 31.1417 41.2234C30.747 41.644 30.1472 41.9881 29.8084 41.9881C29.4698 41.9881 29.1059 42.2462 29.0003 42.5617C28.8944 42.8772 28.5232 43.1353 28.1753 43.1353C27.8274 43.1353 27.5427 43.2951 27.5427 43.4905C27.5427 43.6855 27.3549 44.0802 27.125 44.367C26.8954 44.6538 26.5175 45.225 26.2856 45.6369C26.0537 46.0487 25.4051 47.1963 24.8447 48.1874C24.2839 49.1782 23.8468 50.0905 23.8729 50.2148C23.8993 50.3391 23.6794 50.8622 23.3847 51.3769C23.09 51.8916 22.9509 52.3126 23.0756 52.3126C23.2002 52.3126 23.0779 52.6135 22.8042 52.9818C22.1062 53.9198 21.4231 56.016 21.6681 56.4695C21.7807 56.6779 21.7266 56.9517 21.5478 57.0783C21.369 57.2049 21.3062 57.557 21.4081 57.861C21.514 58.1769 21.1498 58.9222 20.5583 59.599C19.9886 60.2506 19.5227 61.0857 19.5227 61.4547C19.5227 61.8237 19.1468 62.3556 18.6873 62.6371C18.2278 62.9185 17.8519 63.273 17.8519 63.4252C17.8519 63.577 17.4549 63.8152 16.97 63.9548C13.8506 64.8507 3.63716 71.0029 1.54194 73.2483C1.29666 73.5114 0.967838 73.7263 0.811449 73.7263C0.299841 73.7263 -0.19439 76.1701 0.0769522 77.359C0.464919 79.0591 2.29849 79.9424 6.1561 80.2881C7.90211 80.4445 10.0074 80.7378 10.8344 80.9397C11.6615 81.1412 12.7893 81.4138 13.3407 81.5454C13.892 81.6765 14.7943 81.9385 15.3457 82.1274C16.8644 82.6474 19.0078 82.9124 22.6973 83.0355C26.3167 83.1568 27.9404 82.7067 29.657 81.1072C30.1763 80.6231 30.7287 80.2269 30.8844 80.2269C31.2817 80.2269 33.2235 77.9551 33.2235 77.4905C33.2235 76.9678 34.999 77.4439 37.0664 78.5211C37.9854 78.9994 39.1884 79.4862 39.7398 79.6025C40.2911 79.7187 41.3438 80.012 42.0789 80.2537C44.8027 81.15 46.0047 81.1133 47.1957 80.098C47.8045 79.5788 48.1571 79.0514 47.979 78.9253C47.8009 78.7995 47.7227 78.3956 47.8049 78.0278C48.0074 77.1227 46.2981 75.0582 45.0687 74.7228C44.527 74.5752 43.0313 74.2215 41.7448 73.9366C40.4582 73.6521 38.6504 73.1699 37.7271 72.8656C36.222 72.3688 35.6315 72.082 33.8919 71.0018C33.6162 70.8309 32.7891 70.3647 32.054 69.9659C30.7397 69.2535 29.8962 68.353 28.7721 66.4609C26.7564 63.0692 26.3842 62.2688 26.1038 60.7251C25.4893 57.3429 25.7924 53.4961 26.7611 52.3875C27.007 52.1061 27.2085 51.6564 27.2085 51.3887C27.2085 51.1207 27.5093 50.5899 27.8769 50.2095C28.2445 49.829 28.5452 49.372 28.5452 49.1942C28.5452 48.743 29.7278 47.4379 30.8439 46.6578C32.2234 45.6938 34.0747 43.7555 34.3229 43.016C34.4419 42.6607 34.7667 42.3705 35.0447 42.3705C35.8584 42.3705 36.1137 40.4387 35.3809 39.8253C34.62 39.1887 34.6056 39.189 33.4361 39.8873ZM47.6558 50.0332C46.7623 50.9857 46.7178 52.3187 47.5412 53.4819C48.2423 54.4727 49.2054 54.7557 49.8369 54.1561C50.3709 53.649 50.394 51.5226 49.8794 50.2305C49.5566 49.4198 49.4082 49.338 48.9798 49.7345C48.5704 50.1135 48.5176 50.1127 48.7178 49.7315C49.1088 48.9866 48.4658 49.1694 47.6558 50.0332ZM139.028 53.8846C137.745 54.2295 134.792 56.5273 132.402 59.0403C131.721 59.7565 131.031 60.3427 130.869 60.3427C130.598 60.3427 128.847 62.0325 126.411 64.6446C125.872 65.2228 125.315 65.6962 125.174 65.6962C125.032 65.6962 124.276 66.4219 123.493 67.3091L122.07 68.922L120.336 67.8234C119.383 67.2196 117.84 65.9103 116.908 64.9146C113.998 61.8073 111.893 60.9439 107.241 60.9496C102.729 60.9553 97.7209 63.1177 98.29 64.8144C98.446 65.2801 98.3632 65.3857 97.9742 65.2147C97.6684 65.0805 97.1999 65.2943 96.8617 65.7218C96.5403 66.1283 96.0567 66.4609 95.7871 66.4609C95.4178 66.4609 95.3874 66.5864 95.6638 66.9672C95.9318 67.3366 95.9247 67.5947 95.6377 67.9232C95.3537 68.2482 95.3456 68.4884 95.61 68.7908C96.0263 69.2673 97.3834 68.6276 97.3834 67.9546C97.3834 67.7393 97.5271 67.6647 97.7028 67.789C97.8786 67.9133 98.2709 67.5806 98.5747 67.0498C98.8788 66.5194 99.2641 66.1818 99.4315 66.3003C99.5989 66.4185 100.243 66.3237 100.863 66.0896C101.886 65.7034 105.292 65.5031 108.471 65.6422C109.147 65.6721 109.957 65.9902 110.271 66.3501C110.585 66.7095 111.143 67.0559 111.51 67.1202C112.193 67.2395 114.607 70.1185 115.292 71.6297C116.976 75.343 116.536 80.3734 114.217 83.9296C113.781 84.5991 113.423 85.2714 113.423 85.4232C113.423 85.575 113.047 86.2633 112.588 86.9527C112.128 87.6422 111.753 88.3897 111.753 88.6138C111.753 88.8383 111.565 89.0291 111.335 89.0379C110.991 89.0513 109.023 91.7712 108.133 93.4613C108.01 93.695 107.383 94.1844 106.74 94.5492C105.217 95.4123 99.3884 102.483 99.3884 103.467C99.3884 103.756 98.1713 105.052 95.0903 108.04C93.1047 109.967 91.6036 111.184 90.9213 111.422C90.524 111.56 89.9732 111.885 89.6976 112.143C88.0107 113.726 81.6298 114.193 78.1688 112.988C73.2569 111.276 66.3283 107.16 66.3123 105.942C66.309 105.68 66.1573 105.464 65.9755 105.464C65.6406 105.464 64.5302 104.52 63.8422 103.65C63.635 103.388 62.2625 101.712 60.7922 99.9256C57.503 95.9297 57.2835 95.636 57.2835 95.2283C57.2835 95.0486 56.9647 94.5102 56.575 94.0315C56.0584 93.3971 55.7894 92.3738 55.5816 90.252C55.3821 88.22 55.104 87.1225 54.6583 86.6128C53.8833 85.726 52.6252 86.04 52.5634 87.1355C52.5403 87.542 52.4976 88.0899 52.4681 88.3526C52.3783 89.1537 53.2364 95.2329 53.6688 96.8608C53.8924 97.702 54.4588 99.0587 54.9276 99.8755C55.3961 100.693 56.0397 101.811 56.3572 102.361C57.073 103.601 61.3406 108.524 61.6991 108.524C61.8435 108.524 61.9618 108.782 61.9618 109.097C61.9618 109.413 62.1613 109.671 62.4049 109.671C62.6485 109.671 63.2079 110.109 63.648 110.645C64.0881 111.182 65.2326 112.216 66.1913 112.944C69.4027 115.383 70.6311 118.593 70.7206 124.779C70.7651 127.861 70.6755 128.415 69.8578 130.128C69.3559 131.18 68.5018 132.565 67.9597 133.206C67.4177 133.847 66.9743 134.49 66.9743 134.635C66.9743 134.955 66.178 136.095 64.7187 137.864C63.4017 139.46 63.3312 140.724 64.4547 142.616L65.2767 144L67.5457 143.807C68.7935 143.7 70.2658 143.382 70.8172 143.1C73.3518 141.803 75.1557 141.37 78.0833 141.354C81.7521 141.334 83.3909 140.701 84.3449 138.935C85.7036 136.419 84.4341 134.333 79.9229 131.671C78.8659 131.048 77.9219 130.251 77.8247 129.902C77.7277 129.552 77.2743 128.772 76.8171 128.168C76.36 127.564 75.829 126.381 75.6372 125.54C75.4454 124.699 75.2258 123.752 75.1487 123.437C75.0718 123.121 75.2272 122.433 75.4938 121.907C75.7605 121.381 76.2183 120.37 76.5114 119.66C77.0323 118.396 77.0768 118.374 78.6086 118.627C82.6396 119.29 84.6059 119.312 86.8869 118.719C90.3756 117.811 94.695 115.074 97.6908 111.873C98.1359 111.398 98.7758 110.831 99.1134 110.612C99.4509 110.393 100.902 108.912 102.338 107.32C105.585 103.72 106.259 103.212 107.999 103.055C109.292 102.938 109.455 103.037 110.354 104.484C110.885 105.339 111.34 106.296 111.364 106.612C111.447 107.709 111.803 109.866 111.996 110.436C112.102 110.751 112.212 111.181 112.24 111.392C112.269 111.602 112.372 112.032 112.471 112.347C113.862 116.811 114.081 118.83 113.256 119.613C112.981 119.875 112.754 120.283 112.752 120.52C112.751 120.757 110.934 123.086 108.714 125.694C106.495 128.303 104.539 130.859 104.368 131.375C104.128 132.098 104.217 132.611 104.757 133.611C105.329 134.669 105.665 134.908 106.581 134.908C107.742 134.908 109.388 133.99 111.418 132.211C113.563 130.332 115.606 130.05 117.734 131.34C119.445 132.378 120.123 132.439 121.419 131.672C123.032 130.718 123.265 128.663 121.945 127.033C121.485 126.466 121.109 125.867 121.109 125.702C121.109 125.538 120.921 125.173 120.691 124.891C119.831 123.836 119.161 122.038 118.937 120.186C118.701 118.239 117.627 113.78 117.204 112.998C117.076 112.761 116.924 111.958 116.865 111.214C116.806 110.471 116.544 109.174 116.283 108.332C116.021 107.491 115.716 105.972 115.605 104.956C115.494 103.94 115.033 102.47 114.582 101.691C114.05 100.771 113.688 99.4591 113.551 97.9571C113.367 95.9411 113.459 95.3358 114.267 93.274C114.778 91.9719 115.361 90.7835 115.563 90.6332C115.987 90.3173 116.367 89.5751 118.139 85.6044C118.849 84.0141 119.432 82.4111 119.434 82.0432C119.436 81.6754 119.584 81.3741 119.761 81.3741C119.939 81.3741 120.184 80.5137 120.305 79.4621C120.427 78.4106 120.658 77.5502 120.818 77.5502C120.978 77.5502 121.116 77.3353 121.124 77.0722C121.131 76.8095 121.704 75.8566 122.396 74.9549L123.655 73.316L125.139 74.0861C126.233 74.654 127.342 74.8589 129.358 74.8651C130.862 74.8696 132.517 75.062 133.034 75.2926C134.609 75.9943 137.463 76.7854 138.419 76.785C139.304 76.7846 141.811 75.8119 142.86 75.062C143.881 74.3316 144.11 72.4426 143.957 66.025C143.737 56.8252 143.62 55.9235 142.481 54.5897C141.463 53.3978 141.109 53.3255 139.028 53.8846ZM25.0361 70.8087C26.3434 72.269 26.8744 73.1531 26.8744 73.8678C26.8744 74.485 26.6896 74.8735 26.3965 74.8735C26.1335 74.8735 25.8702 75.2604 25.8117 75.7338C25.7436 76.2814 25.506 76.5571 25.1581 76.4917C24.8574 76.4355 24.5352 76.6164 24.4423 76.8936C24.3147 77.2745 23.4692 77.3697 20.979 77.2837C16.7398 77.1372 16.7979 77.146 16.023 76.538C15.6608 76.2535 15.0155 76.0206 14.5891 76.0206C13.996 76.0206 13.6722 75.6402 13.2067 74.3955C12.8725 73.5018 12.6646 72.5692 12.7448 72.3229C12.9103 71.8147 15.887 70.0829 17.2551 69.6986C17.7537 69.5587 19.2574 69.3124 20.5967 69.1514C21.9357 68.9908 23.0689 68.8356 23.1147 68.8073C23.1605 68.7786 24.0253 69.6795 25.0361 70.8087ZM80.8378 82.9197C80.7239 83.3304 80.2701 83.7701 79.8293 83.8967C79.3889 84.0232 78.9297 84.497 78.8098 84.949C78.6895 85.4014 78.3861 86.0396 78.1358 86.3673C77.833 86.7631 77.6559 88.1806 77.6071 90.5953C77.5416 93.8445 77.6188 94.3875 78.3383 95.7358C78.7807 96.5648 79.2619 97.3005 79.4076 97.3705C79.5533 97.4409 79.6726 97.6481 79.6726 97.8313C79.6726 98.2745 81.2906 100.111 81.6813 100.111C81.8504 100.111 82.6891 100.62 83.5456 101.241C85.0456 102.33 87.4506 103.121 89.9499 103.348C91.5141 103.489 94.5784 101.702 96.1927 99.705C96.8624 98.8767 97.5545 98.1991 97.7309 98.1991C97.9074 98.1991 98.0213 98.0703 97.9845 97.9123C97.9475 97.7544 98.3197 96.6719 98.8113 95.506C99.3032 94.3401 99.7733 92.9635 99.8562 92.4469C99.9391 91.9303 100.041 91.4213 100.083 91.3161C100.125 91.211 100.184 90.9529 100.214 90.7426C100.245 90.5323 100.38 89.6658 100.515 88.8169C100.69 87.7148 100.612 86.9493 100.243 86.1401C99.9591 85.5168 99.7259 84.8779 99.7245 84.72C99.7202 84.1284 98.5202 83.0948 97.8375 83.0948C97.4475 83.0948 96.8474 83.4822 96.5039 83.9556C96.1476 84.4469 95.4071 84.8721 94.7785 84.9467C93.236 85.1291 92.5901 86.3069 92.8257 88.5079C92.9279 89.4627 93.1478 90.442 93.3146 90.6844C93.7827 91.3643 94.0043 93.3007 93.6678 93.7665C93.5017 93.9963 93.0673 94.641 92.702 95.1993C91.8997 96.426 89.3644 97.4921 87.9943 97.1785C87.4496 97.0539 86.7395 96.5671 86.4164 96.0975C86.0936 95.6276 85.5342 95.1339 85.1736 95.0005C84.7619 94.8479 84.3138 94.0514 83.9693 92.8583C83.5021 91.2416 83.4894 90.8932 83.8858 90.5173C84.1414 90.2741 84.3509 89.7323 84.3509 89.3136C84.3509 88.5893 84.392 88.5825 85.1837 89.1759C85.6418 89.5193 86.7095 89.909 87.5559 90.042C89.204 90.3001 89.6926 89.9342 89.6819 88.4482C89.6745 87.4219 88.2175 85.5803 87.4129 85.5803C87.0577 85.5803 85.9603 84.8431 84.9741 83.9422C82.9294 82.0738 81.1914 81.644 80.8378 82.9197Z" fill="black"/>
</svg>
